<?xml version="1.0" encoding="UTF-8" standalone="no"?>
<!-- Created with Inkscape (http://www.inkscape.org/) -->

<svg
   width="40"
   height="40"
   viewBox="0 0 10.583333 10.583334"
   version="1.1"
   id="svg5"
   inkscape:version="1.1.2 (b8e25be8, 2022-02-05)"
   sodipodi:docname="pluginIcon.svg"
   xmlns:inkscape="http://www.inkscape.org/namespaces/inkscape"
   xmlns:sodipodi="http://sodipodi.sourceforge.net/DTD/sodipodi-0.dtd"
   xmlns="http://www.w3.org/2000/svg"
   xmlns:svg="http://www.w3.org/2000/svg">
  <sodipodi:namedview
     id="namedview7"
     pagecolor="#ffffff"
     bordercolor="#666666"
     borderopacity="1.0"
     inkscape:pageshadow="2"
     inkscape:pageopacity="0.0"
     inkscape:pagecheckerboard="0"
     inkscape:document-units="mm"
     showgrid="false"
     units="px"
     width="40px"
     showguides="true"
     inkscape:zoom="6.9786552"
     inkscape:cx="-7.2363512"
     inkscape:cy="18.628231"
     inkscape:window-width="1680"
     inkscape:window-height="997"
     inkscape:window-x="0"
     inkscape:window-y="25"
     inkscape:window-maximized="1"
     inkscape:current-layer="layer1" />
  <defs
     id="defs2" />
  <g
     inkscape:label="Layer 1"
     inkscape:groupmode="layer"
     id="layer1">
    <ellipse
       style="fill:none;fill-rule:evenodd;stroke:#2a0090;stroke-width:0.631732;stroke-opacity:1"
       id="path846"
       cx="5.291667"
       cy="5.291667"
       rx="3.9174676"
       ry="3.9174678" />
    <path
       style="fill:none;stroke:#000000;stroke-width:0.361;stroke-linecap:round;stroke-linejoin:miter;stroke-opacity:1;stroke-miterlimit:4;stroke-dasharray:none"
       d="m 5.2916667,5.2916667 v -3.175"
       id="path1068"
       sodipodi:nodetypes="cc" />
    <path
       style="fill:none;stroke:#000000;stroke-width:0.565;stroke-linecap:round;stroke-linejoin:miter;stroke-miterlimit:4;stroke-dasharray:none;stroke-opacity:1;paint-order:fill markers stroke"
       d="M 5.2916666,5.2916666 6.7864674,6.3315087"
       id="path1330"
       sodipodi:nodetypes="cc" />
    <g
       aria-label="J"
       id="text3973"
       style="font-size:10.5833px;line-height:1.25;font-family:ag;-inkscape-font-specification:ag;fill:#ff6600;stroke-width:0.264583">
      <path
         d="M 2.1682854,1.7095768 V 1.3172203 H 5.534291 V 1.7095768 H 5.049008 q -0.5265837,0 -0.5265837,0.3820313 V 7.058015 q 0,0.8982899 -0.6401606,1.4661742 -0.6298354,0.5575592 -1.6726776,0.5575592 -0.8982898,0 -1.48682453,-0.5265837 Q 0.13422686,8.028581 0.13422686,7.2335429 q 0,-0.5678843 0.2787796,-0.9189401 0.2787796,-0.3510558 0.73308714,-0.3510558 0.3510557,0 0.5782095,0.2168285 0.2271537,0.2168286 0.2271537,0.5782096 0,0.2994299 -0.1755279,0.5059333 -0.1755278,0.2065034 -0.4233319,0.2065034 -0.082601,0 -0.2478041,-0.051626 -0.16520275,-0.051626 -0.20650343,-0.051626 -0.19617824,0 -0.19617824,0.2787796 0,0.4130069 0.39235647,0.722762 0.3923565,0.3097551 0.970566,0.3097551 0.6195102,0 0.9912164,-0.4439823 Q 3.4382814,7.780777 3.4382814,6.996064 V 2.0916081 q 0,-0.2374789 -0.1342272,-0.3097551 -0.1342273,-0.072276 -0.4749579,-0.072276 z"
         style="font-family:AppleMyungjo;-inkscape-font-specification:AppleMyungjo"
         id="path6126" />
    </g>
  </g>
</svg>
